# xmcd
# 
# Track frame offsets:
#	182
#	11225
#	23915
#	35692
#	48130
#	58167
#	68467
#	79270
#	91805
#	103252
#	115232
#	127352
#	137312
#	148752
#	157042
#	164640
#	175677
#	187850
#	197610
#	206977
#	218782
#	227645
#	237697
#	247922
#	258925
#	270180
#	281370
#	291200
#
# Disc length: 4006 seconds
#
# Revision: 1
# Processed by: cddbd v1.4PL0 Copyright (c) Steve Scherf et al.
# Submitted via: Audio-CD-Archiv 2.10.446
#
DISCID=9a0fa41c
DTITLE=Johnny Cash - Folsom Prison Blues (The Original Sun Hits)
DYEAR=1997
DGENRE=country
TTITLE0=Cry! Cry! Cry!
TTITLE1=Folsom Prison Blues
TTITLE2=So Doggone Lonesome
TTITLE3=I Walk The Line
TTITLE4=Get Rhythm
TTITLE5=There You Go
TTITLE6=Train Of Love
TTITLE7=Next In Line
TTITLE8=Don't Make Me Go
TTITLE9=Home Of The Blues
TTITLE10=Give My Love To Rose
TTITLE11=Ballad Of A Teenage Queen
TTITLE12=Big River
TTITLE13=Guess Things Happen That Way
TTITLE14=Come In Stranger
TTITLE15=The Ways Of A Woman In Love
TTITLE16=You're The Nearest Thing To Heaven
TTITLE17=It's Just About Time
TTITLE18=Luther Played The Boogie
TTITLE19=Thanks A Lot
TTITLE20=Katy Too
TTITLE21=Goodbye Little Darlin'
TTITLE22=Straight A's In Love
TTITLE23=I Love You Because
TTITLE24=Mean Eyed Cat
TTITLE25=Oh Lonesome Me
TTITLE26=Rock Island Line
TTITLE27=Down The Street To 301
EXTD=
EXTT0=
EXTT1=
EXTT2=
EXTT3=
EXTT4=
EXTT5=
EXTT6=
EXTT7=
EXTT8=
EXTT9=
EXTT10=
EXTT11=
EXTT12=
EXTT13=
EXTT14=
EXTT15=
EXTT16=
EXTT17=
EXTT18=
EXTT19=
EXTT20=
EXTT21=
EXTT22=
EXTT23=
EXTT24=
EXTT25=
EXTT26=
EXTT27=
PLAYORDER=
